<mxfile host="app.diagrams.net" agent="Mozilla/5.0 (Windows NT 10.0; Win64; x64) AppleWebKit/537.36 (KHTML, like Gecko) Chrome/127.0.0.0 Safari/537.36" version="24.7.8">
  <diagram name="第 1 页" id="S4G97J7kll8YZ14EWaDh">
    <mxGraphModel dx="574" dy="298" grid="1" gridSize="10" guides="1" tooltips="1" connect="1" arrows="1" fold="1" page="1" pageScale="1" pageWidth="827" pageHeight="1169" math="0" shadow="0">
      <root>
        <mxCell id="0" />
        <mxCell id="1" parent="0" />
        <mxCell id="00Rb8bGzHDUR0HXcEwbU-51" value="Table" style="shape=table;startSize=30;container=1;collapsible=0;childLayout=tableLayout;strokeColor=default;fontSize=16;" vertex="1" parent="1">
          <mxGeometry width="120" height="70" as="geometry" />
        </mxCell>
        <mxCell id="00Rb8bGzHDUR0HXcEwbU-52" value="" style="shape=tableRow;horizontal=0;startSize=0;swimlaneHead=0;swimlaneBody=0;strokeColor=inherit;top=0;left=0;bottom=0;right=0;collapsible=0;dropTarget=0;fillColor=none;points=[[0,0.5],[1,0.5]];portConstraint=eastwest;fontSize=16;" vertex="1" parent="00Rb8bGzHDUR0HXcEwbU-51">
          <mxGeometry y="30" width="120" height="13" as="geometry" />
        </mxCell>
        <mxCell id="00Rb8bGzHDUR0HXcEwbU-53" value="" style="shape=partialRectangle;html=1;whiteSpace=wrap;connectable=0;strokeColor=inherit;overflow=hidden;fillColor=none;top=0;left=0;bottom=0;right=0;pointerEvents=1;fontSize=16;" vertex="1" parent="00Rb8bGzHDUR0HXcEwbU-52">
          <mxGeometry width="40" height="13" as="geometry">
            <mxRectangle width="40" height="13" as="alternateBounds" />
          </mxGeometry>
        </mxCell>
        <mxCell id="00Rb8bGzHDUR0HXcEwbU-54" value="" style="shape=partialRectangle;html=1;whiteSpace=wrap;connectable=0;strokeColor=inherit;overflow=hidden;fillColor=none;top=0;left=0;bottom=0;right=0;pointerEvents=1;fontSize=16;" vertex="1" parent="00Rb8bGzHDUR0HXcEwbU-52">
          <mxGeometry x="40" width="40" height="13" as="geometry">
            <mxRectangle width="40" height="13" as="alternateBounds" />
          </mxGeometry>
        </mxCell>
        <mxCell id="00Rb8bGzHDUR0HXcEwbU-55" value="" style="shape=partialRectangle;html=1;whiteSpace=wrap;connectable=0;strokeColor=inherit;overflow=hidden;fillColor=none;top=0;left=0;bottom=0;right=0;pointerEvents=1;fontSize=16;" vertex="1" parent="00Rb8bGzHDUR0HXcEwbU-52">
          <mxGeometry x="80" width="40" height="13" as="geometry">
            <mxRectangle width="40" height="13" as="alternateBounds" />
          </mxGeometry>
        </mxCell>
        <mxCell id="00Rb8bGzHDUR0HXcEwbU-56" value="" style="shape=tableRow;horizontal=0;startSize=0;swimlaneHead=0;swimlaneBody=0;strokeColor=inherit;top=0;left=0;bottom=0;right=0;collapsible=0;dropTarget=0;fillColor=none;points=[[0,0.5],[1,0.5]];portConstraint=eastwest;fontSize=16;" vertex="1" parent="00Rb8bGzHDUR0HXcEwbU-51">
          <mxGeometry y="43" width="120" height="14" as="geometry" />
        </mxCell>
        <mxCell id="00Rb8bGzHDUR0HXcEwbU-57" value="" style="shape=partialRectangle;html=1;whiteSpace=wrap;connectable=0;strokeColor=inherit;overflow=hidden;fillColor=none;top=0;left=0;bottom=0;right=0;pointerEvents=1;fontSize=16;" vertex="1" parent="00Rb8bGzHDUR0HXcEwbU-56">
          <mxGeometry width="40" height="14" as="geometry">
            <mxRectangle width="40" height="14" as="alternateBounds" />
          </mxGeometry>
        </mxCell>
        <mxCell id="00Rb8bGzHDUR0HXcEwbU-58" value="" style="shape=partialRectangle;html=1;whiteSpace=wrap;connectable=0;strokeColor=inherit;overflow=hidden;fillColor=none;top=0;left=0;bottom=0;right=0;pointerEvents=1;fontSize=16;" vertex="1" parent="00Rb8bGzHDUR0HXcEwbU-56">
          <mxGeometry x="40" width="40" height="14" as="geometry">
            <mxRectangle width="40" height="14" as="alternateBounds" />
          </mxGeometry>
        </mxCell>
        <mxCell id="00Rb8bGzHDUR0HXcEwbU-59" value="" style="shape=partialRectangle;html=1;whiteSpace=wrap;connectable=0;strokeColor=inherit;overflow=hidden;fillColor=none;top=0;left=0;bottom=0;right=0;pointerEvents=1;fontSize=16;" vertex="1" parent="00Rb8bGzHDUR0HXcEwbU-56">
          <mxGeometry x="80" width="40" height="14" as="geometry">
            <mxRectangle width="40" height="14" as="alternateBounds" />
          </mxGeometry>
        </mxCell>
        <mxCell id="00Rb8bGzHDUR0HXcEwbU-60" value="" style="shape=tableRow;horizontal=0;startSize=0;swimlaneHead=0;swimlaneBody=0;strokeColor=inherit;top=0;left=0;bottom=0;right=0;collapsible=0;dropTarget=0;fillColor=none;points=[[0,0.5],[1,0.5]];portConstraint=eastwest;fontSize=16;" vertex="1" parent="00Rb8bGzHDUR0HXcEwbU-51">
          <mxGeometry y="57" width="120" height="13" as="geometry" />
        </mxCell>
        <mxCell id="00Rb8bGzHDUR0HXcEwbU-61" value="" style="shape=partialRectangle;html=1;whiteSpace=wrap;connectable=0;strokeColor=inherit;overflow=hidden;fillColor=none;top=0;left=0;bottom=0;right=0;pointerEvents=1;fontSize=16;" vertex="1" parent="00Rb8bGzHDUR0HXcEwbU-60">
          <mxGeometry width="40" height="13" as="geometry">
            <mxRectangle width="40" height="13" as="alternateBounds" />
          </mxGeometry>
        </mxCell>
        <mxCell id="00Rb8bGzHDUR0HXcEwbU-62" value="" style="shape=partialRectangle;html=1;whiteSpace=wrap;connectable=0;strokeColor=inherit;overflow=hidden;fillColor=none;top=0;left=0;bottom=0;right=0;pointerEvents=1;fontSize=16;" vertex="1" parent="00Rb8bGzHDUR0HXcEwbU-60">
          <mxGeometry x="40" width="40" height="13" as="geometry">
            <mxRectangle width="40" height="13" as="alternateBounds" />
          </mxGeometry>
        </mxCell>
        <mxCell id="00Rb8bGzHDUR0HXcEwbU-63" value="" style="shape=partialRectangle;html=1;whiteSpace=wrap;connectable=0;strokeColor=inherit;overflow=hidden;fillColor=none;top=0;left=0;bottom=0;right=0;pointerEvents=1;fontSize=16;" vertex="1" parent="00Rb8bGzHDUR0HXcEwbU-60">
          <mxGeometry x="80" width="40" height="13" as="geometry">
            <mxRectangle width="40" height="13" as="alternateBounds" />
          </mxGeometry>
        </mxCell>
        <mxCell id="00Rb8bGzHDUR0HXcEwbU-64" value="Table" style="shape=table;startSize=30;container=1;collapsible=0;childLayout=tableLayout;strokeColor=default;fontSize=16;" vertex="1" parent="1">
          <mxGeometry x="130" width="120" height="70" as="geometry" />
        </mxCell>
        <mxCell id="00Rb8bGzHDUR0HXcEwbU-65" value="" style="shape=tableRow;horizontal=0;startSize=0;swimlaneHead=0;swimlaneBody=0;strokeColor=inherit;top=0;left=0;bottom=0;right=0;collapsible=0;dropTarget=0;fillColor=none;points=[[0,0.5],[1,0.5]];portConstraint=eastwest;fontSize=16;" vertex="1" parent="00Rb8bGzHDUR0HXcEwbU-64">
          <mxGeometry y="30" width="120" height="13" as="geometry" />
        </mxCell>
        <mxCell id="00Rb8bGzHDUR0HXcEwbU-66" value="" style="shape=partialRectangle;html=1;whiteSpace=wrap;connectable=0;strokeColor=inherit;overflow=hidden;fillColor=none;top=0;left=0;bottom=0;right=0;pointerEvents=1;fontSize=16;" vertex="1" parent="00Rb8bGzHDUR0HXcEwbU-65">
          <mxGeometry width="40" height="13" as="geometry">
            <mxRectangle width="40" height="13" as="alternateBounds" />
          </mxGeometry>
        </mxCell>
        <mxCell id="00Rb8bGzHDUR0HXcEwbU-67" value="" style="shape=partialRectangle;html=1;whiteSpace=wrap;connectable=0;strokeColor=inherit;overflow=hidden;fillColor=none;top=0;left=0;bottom=0;right=0;pointerEvents=1;fontSize=16;" vertex="1" parent="00Rb8bGzHDUR0HXcEwbU-65">
          <mxGeometry x="40" width="40" height="13" as="geometry">
            <mxRectangle width="40" height="13" as="alternateBounds" />
          </mxGeometry>
        </mxCell>
        <mxCell id="00Rb8bGzHDUR0HXcEwbU-68" value="" style="shape=partialRectangle;html=1;whiteSpace=wrap;connectable=0;strokeColor=inherit;overflow=hidden;fillColor=none;top=0;left=0;bottom=0;right=0;pointerEvents=1;fontSize=16;" vertex="1" parent="00Rb8bGzHDUR0HXcEwbU-65">
          <mxGeometry x="80" width="40" height="13" as="geometry">
            <mxRectangle width="40" height="13" as="alternateBounds" />
          </mxGeometry>
        </mxCell>
        <mxCell id="00Rb8bGzHDUR0HXcEwbU-69" value="" style="shape=tableRow;horizontal=0;startSize=0;swimlaneHead=0;swimlaneBody=0;strokeColor=inherit;top=0;left=0;bottom=0;right=0;collapsible=0;dropTarget=0;fillColor=none;points=[[0,0.5],[1,0.5]];portConstraint=eastwest;fontSize=16;" vertex="1" parent="00Rb8bGzHDUR0HXcEwbU-64">
          <mxGeometry y="43" width="120" height="14" as="geometry" />
        </mxCell>
        <mxCell id="00Rb8bGzHDUR0HXcEwbU-70" value="" style="shape=partialRectangle;html=1;whiteSpace=wrap;connectable=0;strokeColor=inherit;overflow=hidden;fillColor=none;top=0;left=0;bottom=0;right=0;pointerEvents=1;fontSize=16;" vertex="1" parent="00Rb8bGzHDUR0HXcEwbU-69">
          <mxGeometry width="40" height="14" as="geometry">
            <mxRectangle width="40" height="14" as="alternateBounds" />
          </mxGeometry>
        </mxCell>
        <mxCell id="00Rb8bGzHDUR0HXcEwbU-71" value="" style="shape=partialRectangle;html=1;whiteSpace=wrap;connectable=0;strokeColor=inherit;overflow=hidden;fillColor=none;top=0;left=0;bottom=0;right=0;pointerEvents=1;fontSize=16;" vertex="1" parent="00Rb8bGzHDUR0HXcEwbU-69">
          <mxGeometry x="40" width="40" height="14" as="geometry">
            <mxRectangle width="40" height="14" as="alternateBounds" />
          </mxGeometry>
        </mxCell>
        <mxCell id="00Rb8bGzHDUR0HXcEwbU-72" value="" style="shape=partialRectangle;html=1;whiteSpace=wrap;connectable=0;strokeColor=inherit;overflow=hidden;fillColor=none;top=0;left=0;bottom=0;right=0;pointerEvents=1;fontSize=16;" vertex="1" parent="00Rb8bGzHDUR0HXcEwbU-69">
          <mxGeometry x="80" width="40" height="14" as="geometry">
            <mxRectangle width="40" height="14" as="alternateBounds" />
          </mxGeometry>
        </mxCell>
        <mxCell id="00Rb8bGzHDUR0HXcEwbU-73" value="" style="shape=tableRow;horizontal=0;startSize=0;swimlaneHead=0;swimlaneBody=0;strokeColor=inherit;top=0;left=0;bottom=0;right=0;collapsible=0;dropTarget=0;fillColor=none;points=[[0,0.5],[1,0.5]];portConstraint=eastwest;fontSize=16;" vertex="1" parent="00Rb8bGzHDUR0HXcEwbU-64">
          <mxGeometry y="57" width="120" height="13" as="geometry" />
        </mxCell>
        <mxCell id="00Rb8bGzHDUR0HXcEwbU-74" value="" style="shape=partialRectangle;html=1;whiteSpace=wrap;connectable=0;strokeColor=inherit;overflow=hidden;fillColor=none;top=0;left=0;bottom=0;right=0;pointerEvents=1;fontSize=16;" vertex="1" parent="00Rb8bGzHDUR0HXcEwbU-73">
          <mxGeometry width="40" height="13" as="geometry">
            <mxRectangle width="40" height="13" as="alternateBounds" />
          </mxGeometry>
        </mxCell>
        <mxCell id="00Rb8bGzHDUR0HXcEwbU-75" value="" style="shape=partialRectangle;html=1;whiteSpace=wrap;connectable=0;strokeColor=inherit;overflow=hidden;fillColor=none;top=0;left=0;bottom=0;right=0;pointerEvents=1;fontSize=16;" vertex="1" parent="00Rb8bGzHDUR0HXcEwbU-73">
          <mxGeometry x="40" width="40" height="13" as="geometry">
            <mxRectangle width="40" height="13" as="alternateBounds" />
          </mxGeometry>
        </mxCell>
        <mxCell id="00Rb8bGzHDUR0HXcEwbU-76" value="" style="shape=partialRectangle;html=1;whiteSpace=wrap;connectable=0;strokeColor=inherit;overflow=hidden;fillColor=none;top=0;left=0;bottom=0;right=0;pointerEvents=1;fontSize=16;" vertex="1" parent="00Rb8bGzHDUR0HXcEwbU-73">
          <mxGeometry x="80" width="40" height="13" as="geometry">
            <mxRectangle width="40" height="13" as="alternateBounds" />
          </mxGeometry>
        </mxCell>
        <mxCell id="00Rb8bGzHDUR0HXcEwbU-77" value="Table" style="shape=table;startSize=30;container=1;collapsible=0;childLayout=tableLayout;strokeColor=default;fontSize=16;" vertex="1" parent="1">
          <mxGeometry x="270" width="120" height="70" as="geometry" />
        </mxCell>
        <mxCell id="00Rb8bGzHDUR0HXcEwbU-78" value="" style="shape=tableRow;horizontal=0;startSize=0;swimlaneHead=0;swimlaneBody=0;strokeColor=inherit;top=0;left=0;bottom=0;right=0;collapsible=0;dropTarget=0;fillColor=none;points=[[0,0.5],[1,0.5]];portConstraint=eastwest;fontSize=16;" vertex="1" parent="00Rb8bGzHDUR0HXcEwbU-77">
          <mxGeometry y="30" width="120" height="13" as="geometry" />
        </mxCell>
        <mxCell id="00Rb8bGzHDUR0HXcEwbU-79" value="" style="shape=partialRectangle;html=1;whiteSpace=wrap;connectable=0;strokeColor=inherit;overflow=hidden;fillColor=none;top=0;left=0;bottom=0;right=0;pointerEvents=1;fontSize=16;" vertex="1" parent="00Rb8bGzHDUR0HXcEwbU-78">
          <mxGeometry width="40" height="13" as="geometry">
            <mxRectangle width="40" height="13" as="alternateBounds" />
          </mxGeometry>
        </mxCell>
        <mxCell id="00Rb8bGzHDUR0HXcEwbU-80" value="" style="shape=partialRectangle;html=1;whiteSpace=wrap;connectable=0;strokeColor=inherit;overflow=hidden;fillColor=none;top=0;left=0;bottom=0;right=0;pointerEvents=1;fontSize=16;" vertex="1" parent="00Rb8bGzHDUR0HXcEwbU-78">
          <mxGeometry x="40" width="40" height="13" as="geometry">
            <mxRectangle width="40" height="13" as="alternateBounds" />
          </mxGeometry>
        </mxCell>
        <mxCell id="00Rb8bGzHDUR0HXcEwbU-81" value="" style="shape=partialRectangle;html=1;whiteSpace=wrap;connectable=0;strokeColor=inherit;overflow=hidden;fillColor=none;top=0;left=0;bottom=0;right=0;pointerEvents=1;fontSize=16;" vertex="1" parent="00Rb8bGzHDUR0HXcEwbU-78">
          <mxGeometry x="80" width="40" height="13" as="geometry">
            <mxRectangle width="40" height="13" as="alternateBounds" />
          </mxGeometry>
        </mxCell>
        <mxCell id="00Rb8bGzHDUR0HXcEwbU-82" value="" style="shape=tableRow;horizontal=0;startSize=0;swimlaneHead=0;swimlaneBody=0;strokeColor=inherit;top=0;left=0;bottom=0;right=0;collapsible=0;dropTarget=0;fillColor=none;points=[[0,0.5],[1,0.5]];portConstraint=eastwest;fontSize=16;" vertex="1" parent="00Rb8bGzHDUR0HXcEwbU-77">
          <mxGeometry y="43" width="120" height="14" as="geometry" />
        </mxCell>
        <mxCell id="00Rb8bGzHDUR0HXcEwbU-83" value="" style="shape=partialRectangle;html=1;whiteSpace=wrap;connectable=0;strokeColor=inherit;overflow=hidden;fillColor=none;top=0;left=0;bottom=0;right=0;pointerEvents=1;fontSize=16;" vertex="1" parent="00Rb8bGzHDUR0HXcEwbU-82">
          <mxGeometry width="40" height="14" as="geometry">
            <mxRectangle width="40" height="14" as="alternateBounds" />
          </mxGeometry>
        </mxCell>
        <mxCell id="00Rb8bGzHDUR0HXcEwbU-84" value="" style="shape=partialRectangle;html=1;whiteSpace=wrap;connectable=0;strokeColor=inherit;overflow=hidden;fillColor=none;top=0;left=0;bottom=0;right=0;pointerEvents=1;fontSize=16;" vertex="1" parent="00Rb8bGzHDUR0HXcEwbU-82">
          <mxGeometry x="40" width="40" height="14" as="geometry">
            <mxRectangle width="40" height="14" as="alternateBounds" />
          </mxGeometry>
        </mxCell>
        <mxCell id="00Rb8bGzHDUR0HXcEwbU-85" value="" style="shape=partialRectangle;html=1;whiteSpace=wrap;connectable=0;strokeColor=inherit;overflow=hidden;fillColor=none;top=0;left=0;bottom=0;right=0;pointerEvents=1;fontSize=16;" vertex="1" parent="00Rb8bGzHDUR0HXcEwbU-82">
          <mxGeometry x="80" width="40" height="14" as="geometry">
            <mxRectangle width="40" height="14" as="alternateBounds" />
          </mxGeometry>
        </mxCell>
        <mxCell id="00Rb8bGzHDUR0HXcEwbU-86" value="" style="shape=tableRow;horizontal=0;startSize=0;swimlaneHead=0;swimlaneBody=0;strokeColor=inherit;top=0;left=0;bottom=0;right=0;collapsible=0;dropTarget=0;fillColor=none;points=[[0,0.5],[1,0.5]];portConstraint=eastwest;fontSize=16;" vertex="1" parent="00Rb8bGzHDUR0HXcEwbU-77">
          <mxGeometry y="57" width="120" height="13" as="geometry" />
        </mxCell>
        <mxCell id="00Rb8bGzHDUR0HXcEwbU-87" value="" style="shape=partialRectangle;html=1;whiteSpace=wrap;connectable=0;strokeColor=inherit;overflow=hidden;fillColor=none;top=0;left=0;bottom=0;right=0;pointerEvents=1;fontSize=16;" vertex="1" parent="00Rb8bGzHDUR0HXcEwbU-86">
          <mxGeometry width="40" height="13" as="geometry">
            <mxRectangle width="40" height="13" as="alternateBounds" />
          </mxGeometry>
        </mxCell>
        <mxCell id="00Rb8bGzHDUR0HXcEwbU-88" value="" style="shape=partialRectangle;html=1;whiteSpace=wrap;connectable=0;strokeColor=inherit;overflow=hidden;fillColor=none;top=0;left=0;bottom=0;right=0;pointerEvents=1;fontSize=16;" vertex="1" parent="00Rb8bGzHDUR0HXcEwbU-86">
          <mxGeometry x="40" width="40" height="13" as="geometry">
            <mxRectangle width="40" height="13" as="alternateBounds" />
          </mxGeometry>
        </mxCell>
        <mxCell id="00Rb8bGzHDUR0HXcEwbU-89" value="" style="shape=partialRectangle;html=1;whiteSpace=wrap;connectable=0;strokeColor=inherit;overflow=hidden;fillColor=none;top=0;left=0;bottom=0;right=0;pointerEvents=1;fontSize=16;" vertex="1" parent="00Rb8bGzHDUR0HXcEwbU-86">
          <mxGeometry x="80" width="40" height="13" as="geometry">
            <mxRectangle width="40" height="13" as="alternateBounds" />
          </mxGeometry>
        </mxCell>
        <mxCell id="00Rb8bGzHDUR0HXcEwbU-90" value="Table" style="shape=table;startSize=30;container=1;collapsible=0;childLayout=tableLayout;strokeColor=default;fontSize=16;" vertex="1" parent="1">
          <mxGeometry x="400" width="120" height="70" as="geometry" />
        </mxCell>
        <mxCell id="00Rb8bGzHDUR0HXcEwbU-91" value="" style="shape=tableRow;horizontal=0;startSize=0;swimlaneHead=0;swimlaneBody=0;strokeColor=inherit;top=0;left=0;bottom=0;right=0;collapsible=0;dropTarget=0;fillColor=none;points=[[0,0.5],[1,0.5]];portConstraint=eastwest;fontSize=16;" vertex="1" parent="00Rb8bGzHDUR0HXcEwbU-90">
          <mxGeometry y="30" width="120" height="13" as="geometry" />
        </mxCell>
        <mxCell id="00Rb8bGzHDUR0HXcEwbU-92" value="" style="shape=partialRectangle;html=1;whiteSpace=wrap;connectable=0;strokeColor=inherit;overflow=hidden;fillColor=none;top=0;left=0;bottom=0;right=0;pointerEvents=1;fontSize=16;" vertex="1" parent="00Rb8bGzHDUR0HXcEwbU-91">
          <mxGeometry width="40" height="13" as="geometry">
            <mxRectangle width="40" height="13" as="alternateBounds" />
          </mxGeometry>
        </mxCell>
        <mxCell id="00Rb8bGzHDUR0HXcEwbU-93" value="" style="shape=partialRectangle;html=1;whiteSpace=wrap;connectable=0;strokeColor=inherit;overflow=hidden;fillColor=none;top=0;left=0;bottom=0;right=0;pointerEvents=1;fontSize=16;" vertex="1" parent="00Rb8bGzHDUR0HXcEwbU-91">
          <mxGeometry x="40" width="40" height="13" as="geometry">
            <mxRectangle width="40" height="13" as="alternateBounds" />
          </mxGeometry>
        </mxCell>
        <mxCell id="00Rb8bGzHDUR0HXcEwbU-94" value="" style="shape=partialRectangle;html=1;whiteSpace=wrap;connectable=0;strokeColor=inherit;overflow=hidden;fillColor=none;top=0;left=0;bottom=0;right=0;pointerEvents=1;fontSize=16;" vertex="1" parent="00Rb8bGzHDUR0HXcEwbU-91">
          <mxGeometry x="80" width="40" height="13" as="geometry">
            <mxRectangle width="40" height="13" as="alternateBounds" />
          </mxGeometry>
        </mxCell>
        <mxCell id="00Rb8bGzHDUR0HXcEwbU-95" value="" style="shape=tableRow;horizontal=0;startSize=0;swimlaneHead=0;swimlaneBody=0;strokeColor=inherit;top=0;left=0;bottom=0;right=0;collapsible=0;dropTarget=0;fillColor=none;points=[[0,0.5],[1,0.5]];portConstraint=eastwest;fontSize=16;" vertex="1" parent="00Rb8bGzHDUR0HXcEwbU-90">
          <mxGeometry y="43" width="120" height="14" as="geometry" />
        </mxCell>
        <mxCell id="00Rb8bGzHDUR0HXcEwbU-96" value="" style="shape=partialRectangle;html=1;whiteSpace=wrap;connectable=0;strokeColor=inherit;overflow=hidden;fillColor=none;top=0;left=0;bottom=0;right=0;pointerEvents=1;fontSize=16;" vertex="1" parent="00Rb8bGzHDUR0HXcEwbU-95">
          <mxGeometry width="40" height="14" as="geometry">
            <mxRectangle width="40" height="14" as="alternateBounds" />
          </mxGeometry>
        </mxCell>
        <mxCell id="00Rb8bGzHDUR0HXcEwbU-97" value="" style="shape=partialRectangle;html=1;whiteSpace=wrap;connectable=0;strokeColor=inherit;overflow=hidden;fillColor=none;top=0;left=0;bottom=0;right=0;pointerEvents=1;fontSize=16;" vertex="1" parent="00Rb8bGzHDUR0HXcEwbU-95">
          <mxGeometry x="40" width="40" height="14" as="geometry">
            <mxRectangle width="40" height="14" as="alternateBounds" />
          </mxGeometry>
        </mxCell>
        <mxCell id="00Rb8bGzHDUR0HXcEwbU-98" value="" style="shape=partialRectangle;html=1;whiteSpace=wrap;connectable=0;strokeColor=inherit;overflow=hidden;fillColor=none;top=0;left=0;bottom=0;right=0;pointerEvents=1;fontSize=16;" vertex="1" parent="00Rb8bGzHDUR0HXcEwbU-95">
          <mxGeometry x="80" width="40" height="14" as="geometry">
            <mxRectangle width="40" height="14" as="alternateBounds" />
          </mxGeometry>
        </mxCell>
        <mxCell id="00Rb8bGzHDUR0HXcEwbU-99" value="" style="shape=tableRow;horizontal=0;startSize=0;swimlaneHead=0;swimlaneBody=0;strokeColor=inherit;top=0;left=0;bottom=0;right=0;collapsible=0;dropTarget=0;fillColor=none;points=[[0,0.5],[1,0.5]];portConstraint=eastwest;fontSize=16;" vertex="1" parent="00Rb8bGzHDUR0HXcEwbU-90">
          <mxGeometry y="57" width="120" height="13" as="geometry" />
        </mxCell>
        <mxCell id="00Rb8bGzHDUR0HXcEwbU-100" value="" style="shape=partialRectangle;html=1;whiteSpace=wrap;connectable=0;strokeColor=inherit;overflow=hidden;fillColor=none;top=0;left=0;bottom=0;right=0;pointerEvents=1;fontSize=16;" vertex="1" parent="00Rb8bGzHDUR0HXcEwbU-99">
          <mxGeometry width="40" height="13" as="geometry">
            <mxRectangle width="40" height="13" as="alternateBounds" />
          </mxGeometry>
        </mxCell>
        <mxCell id="00Rb8bGzHDUR0HXcEwbU-101" value="" style="shape=partialRectangle;html=1;whiteSpace=wrap;connectable=0;strokeColor=inherit;overflow=hidden;fillColor=none;top=0;left=0;bottom=0;right=0;pointerEvents=1;fontSize=16;" vertex="1" parent="00Rb8bGzHDUR0HXcEwbU-99">
          <mxGeometry x="40" width="40" height="13" as="geometry">
            <mxRectangle width="40" height="13" as="alternateBounds" />
          </mxGeometry>
        </mxCell>
        <mxCell id="00Rb8bGzHDUR0HXcEwbU-102" value="" style="shape=partialRectangle;html=1;whiteSpace=wrap;connectable=0;strokeColor=inherit;overflow=hidden;fillColor=none;top=0;left=0;bottom=0;right=0;pointerEvents=1;fontSize=16;" vertex="1" parent="00Rb8bGzHDUR0HXcEwbU-99">
          <mxGeometry x="80" width="40" height="13" as="geometry">
            <mxRectangle width="40" height="13" as="alternateBounds" />
          </mxGeometry>
        </mxCell>
      </root>
    </mxGraphModel>
  </diagram>
</mxfile>
